<svg xmlns="http://www.w3.org/2000/svg" width="48" height="48" viewBox="0 0 48 48"><g fill="none" stroke="#fff" stroke-width="2"><circle cx="24" cy="24" r="24" stroke="none"/><circle cx="24" cy="24" r="23" fill="none"/></g><g transform="translate(-1782.517 -734.333)"><g transform="translate(1804.892 748.806)"><path d="M.291,10.641,9.22,19.566a1,1,0,0,0,1.419-1.416L2.418,9.932l8.22-8.217A1,1,0,0,0,9.219.3L.291,9.223A1.013,1.013,0,0,0,.291,10.641Z" transform="translate(-0.001 -0.005)" fill="#fff"/></g><g transform="translate(1796.517 748.806)"><path d="M10.642,10.641,1.714,19.566A1,1,0,0,1,.295,18.15l8.22-8.217L.3,1.715A1,1,0,0,1,1.715.3l8.929,8.925A1.013,1.013,0,0,1,10.642,10.641Z" transform="translate(-0.001 -0.005)" fill="#fff"/></g></g></svg>